{"title":"Redeemer.2015.DVDRip.x264.AC3.RoSubbed-playSD","uid":12336558,"size":974273835,"categoryP":"video","categoryS":"movies","magnet":"?xt=urn:btih:09bbc7c692e05b06ac70b8a79741933f8a5ab19c&amp;dn=Redeemer.2015.DVDRip.x264.AC3.RoSubbed-playSD&amp;tr=udp%3A%2F%2Ftracker.openbittorrent.com%3A80&amp;tr=udp%3A%2F%2Fopen.demonii.com%3A1337&amp;tr=udp%3A%2F%2Ftracker.coppersurfer.tk%3A6969&amp;tr=udp%3A%2F%2Fexodus.desync.com%3A6969","seeders":1,"leechers":0,"uploader":"TvTeam","files":5,"time":1441240952,"description":"------------------------------------------------------------------------\n\n &lt;a href=&quot; https://www.torrenting.com&quot; rel=&quot;nofollow&quot; target=&quot;_NEW&quot;&gt; https://www.torrenting.com&lt;/a&gt;\n\nSign up is OPEN - for time being. Come and have fun.\n\n------------------------------------------------------------------------General\nUnique ID                   : 187891076973917544919642740721698798840 (0x8D5A8151089530329A53C1676884FCF8)\nComplete name               : C:UsersHazerDesktopRedemeerRedeemer.2015.DVDR.NTSC.Aud.LatinoRedeemer.2015..mkv\nFormat                      : Matroska\nFormat version              : Version 4 / Version 2\nFile size                   : 919 MiB\nDuration                    : 1h 29mn\nOverall bit rate            : 1 428 Kbps\nEncoded date                : UTC 2015-08-27 18:54:02\nWriting application         : mkvmerge v8.0.0 ('Til The Day That I Die') 64bit\nWriting library             : libebml v1.3.1 + libmatroska v1.4.2\nDURATION                    : 01:29:57.120000000\nNUMBER_OF_FRAMES            : 168660\nNUMBER_OF_BYTES             : 302238720\n_STATISTICS_WRITING_APP     : mkvmerge v8.0.0 ('Til The Day That I Die') 64bit\n_STATISTICS_WRITING_DATE_UT : 2015-08-27 18:54:02\n_STATISTICS_TAGS            : BPS DURATION NUMBER_OF_FRAMES NUMBER_OF_BYTES\n\nVideo\nID                          : 1\nFormat                      : AVC\nFormat/Info                 : Advanced Video Codec\nFormat profile              : High 10@L3\nFormat settings, CABAC      : No\nFormat settings, ReFrames   : 4 frames\nCodec ID                    : V_MPEG4/ISO/AVC\nDuration                    : 1h 29mn\nBit rate                    : 952 Kbps\nNominal bit rate            : 1 000 Kbps\nWidth                       : 720 pixels\nHeight                      : 404 pixels\nDisplay aspect ratio        : 16:9\nFrame rate mode             : Constant\nFrame rate                  : 23.976 fps\nColor space                 : YUV\nChroma subsampling          : 4:2:0\nBit depth                   : 10 bits\nScan type                   : Progressive\nBits/(Pixel*Frame)          : 0.136\nStream size                 : 612 MiB (67%)\nWriting library             : x264 core 142 r2479 dd79a61\nEncoding settings           : cabac=0 / ref=2 / deblock=1:-3:-3 / analyse=0x3:0x113 / me=hex / subme=4 / psy=1 / psy_rd=1.00:0.15 / mixed_ref=0 / me_range=16 / chroma_me=1 / trellis=1 / 8x8dct=1 / cqm=0 / deadzone=21,11 / fast_pskip=1 / chroma_qp_offset=-3 / threads=6 / lookahead_threads=1 / sliced_threads=0 / slices=5 / nr=0 / decimate=1 / interlaced=0 / bluray_compat=0 / constrained_intra=0 / bframes=3 / b_pyramid=2 / b_adapt=1 / b_bias=0 / direct=1 / weightb=0 / open_gop=0 / weightp=0 / keyint=240 / keyint_min=23 / scenecut=40 / intra_refresh=0 / rc_lookahead=20 / rc=abr / mbtree=1 / bitrate=1000 / ratetol=1.0 / qcomp=0.60 / qpmin=10 / qpmax=51 / qpstep=4 / ip_ratio=1.40 / aq=1:1.00\nDefault                     : Yes\nForced                      : No\nColor range                 : Limited\nMatrix coefficients         : BT.709\n\nAudio\nID                          : 2\nFormat                      : AC-3\nFormat/Info                 : Audio Coding 3\nMode extension              : CM (complete main)\nFormat settings, Endianness : Big\nCodec ID                    : A_AC3\nDuration                    : 1h 29mn\nBit rate mode               : Constant\nBit rate                    : 448 Kbps\nChannel(s)                  : 6 channels\nChannel positions           : Front: L C R, Side: L R, LFE\nSampling rate               : 48.0 KHz\nCompression mode            : Lossy\nStream size                 : 288 MiB (31%)\nDefault                     : Yes\nForced                      : No","torrent":{"xt":"urn:btih:09bbc7c692e05b06ac70b8a79741933f8a5ab19c","amp;dn":"Redeemer.2015.DVDRip.x264.AC3.RoSubbed-playSD","amp;tr":["udp%3A%2F%2Ftracker.openbittorrent.com%3A80","udp%3A%2F%2Fopen.demonii.com%3A1337","udp%3A%2F%2Ftracker.coppersurfer.tk%3A6969","udp%3A%2F%2Fexodus.desync.com%3A6969"],"infoHash":"09bbc7c692e05b06ac70b8a79741933f8a5ab19c","infoHashBuffer":{"type":"Buffer","data":[9,187,199,198,146,224,91,6,172,112,184,167,151,65,147,63,138,90,177,156]},"announce":[],"urlList":[]}}